<?xml version="1.0" encoding="UTF-8" standalone="no"?>
<svg
   width="512"
   height="512"
   viewBox="0 0 512 512"
   role="img"
   aria-labelledby="title desc"
   version="1.1"
   id="svg7"
   xmlns="http://www.w3.org/2000/svg"
   xmlns:svg="http://www.w3.org/2000/svg">
  <defs
     id="defs7" />
  <title
     id="title">MimOS embrace symbol</title>
  <desc
     id="desc">A smiling pink heart held by two purple arms that reach around it and meet in front.</desc>
  <!-- Generated by scripts/generate-brand-lockups.py. Regenerate rather than editing by hand. -->
  <g
     transform="translate(1.66 12.63) scale(0.9935)"
     id="g7">
    <g
       fill="none"
       stroke="#7C5CFC"
       stroke-width="38"
       stroke-linecap="round"
       id="g2">
      <path
         d="M176 236C130 232 98 236 84 250 44 276 40 332 96 358c36 16 80 22 112 10"
         id="path1" />
      <path
         d="M336 236c46-4 78 0 92 14 40 26 44 82-12 108-36 16-80 22-112 10"
         id="path2" />
    </g>
    <path
       d="M256 405C200 350 106 268 106 195c0-65 46-100 90-100 30 0 52 23 60 50 8-27 30-50 60-50 44 0 90 35 90 100 0 73-94 155-150 210z"
       fill="#FF6FAE"
       id="path3" />
    <g
       fill="none"
       stroke="#7C5CFC"
       stroke-width="38"
       stroke-linecap="round"
       id="g5">
      <path
         d="M96 358c36 16 80 22 112 10"
         id="path4" />
      <path
         d="M416 358c-36 16-80 22-112 10"
         id="path5" />
    </g>
    <g
       fill="#221B3A"
       id="g6">
      <circle
         cx="214"
         cy="222"
         r="11"
         id="circle5" />
      <circle
         cx="298"
         cy="222"
         r="11"
         id="circle6" />
    </g>
    <path
       d="M221 250c7 30 67 30 74 0"
       fill="none"
       stroke="#221B3A"
       stroke-width="12"
       stroke-linecap="round"
       id="path6" />
  </g>
</svg>
